<?xml version="1.0" standalone="no"?>
<!DOCTYPE svg PUBLIC "-//W3C//DTD SVG 20010904//EN"
 "http://www.w3.org/TR/2001/REC-SVG-20010904/DTD/svg10.dtd">
<svg version="1.0" xmlns="http://www.w3.org/2000/svg"
 width="1053.000000pt" height="1053.000000pt" viewBox="0 0 1053.000000 1053.000000"
 preserveAspectRatio="xMidYMid meet">
<g transform="translate(0.000000,1053.000000) scale(0.100000,-0.100000)"
fill="#ce3c80" stroke="none">
<path d="M2630 10379 c-536 -4 -1252 -12 -1591 -18 -338 -6 -670 -11 -737 -11
l-122 0 0 -35 c0 -23 -5 -35 -14 -35 -11 0 -15 -129 -20 -792 -5 -603 -25
-9338 -22 -9344 1 -1 705 2 1566 6 5650 29 7066 33 7835 21 532 -8 790 -8 810
-1 17 5 38 13 49 16 18 7 19 25 11 653 -4 355 -9 2225 -10 4156 -4 3941 -14
5328 -39 5354 -21 20 62 19 -2561 31 -2352 11 -3651 11 -5155 -1z m5045 -38
l760 -6 -925 -8 c-3594 -30 -4934 -31 -5890 -7 l-275 7 265 3 c1429 17 4600
23 6065 11z m-6630 -51 c147 -5 75 -7 -317 -8 -461 -2 -508 0 -508 14 0 15 30
15 318 9 174 -4 403 -11 507 -15z m9252 -87 c-2 -16 -4 -3 -4 27 0 30 2 43 4
28 2 -16 2 -40 0 -55z m45 -2988 c3 -929 2 -1438 -2 -1130 -8 598 -12 2831 -6
2824 2 -2 6 -764 8 -1694z"/>
</g>
</svg>
